<svg width="8" height="4" viewBox="0 0 8 4" fill="none" xmlns="http://www.w3.org/2000/svg">
<path d="M7.99996 0.663692C8.00025 0.749076 7.98141 0.833439 7.94483 0.910584C7.90824 0.987729 7.85484 1.05569 7.78855 1.10949L4.3603 3.86998C4.25807 3.95405 4.12983 4 3.99748 4C3.86514 4 3.7369 3.95405 3.63466 3.86998L0.20641 1.01233C0.0897261 0.915315 0.0163476 0.775913 0.00241762 0.624785C-0.0115123 0.473657 0.0351472 0.323183 0.132132 0.206467C0.229116 0.089751 0.368481 0.0163526 0.519567 0.00241873C0.670654 -0.0115152 0.821085 0.0351572 0.93777 0.132168L4.00034 2.68691L7.06291 0.217898C7.14678 0.148009 7.2489 0.103614 7.35721 0.0899662C7.46551 0.0763184 7.57546 0.0939883 7.67403 0.140886C7.77261 0.187783 7.8557 0.261945 7.91346 0.354596C7.97122 0.447247 8.00124 0.55451 7.99996 0.663692Z" fill="white"/>
</svg>
