<svg
          width="25px"
          height="9px"
          viewBox="0 0 14 9"
          version="1.1"
          xmlns="http://www.w3.org/2000/svg"
        >
          <title>Combined Shape</title>
          <g
            id="Cont-user"
            stroke="none"
            stroke-width="1"
            fill="none"
            fill-rule="evenodd"
          >
            <g
              id="Magazine_Desktop-Informatii-cont"
              transform="translate(-99.000000, -114.000000)"
              fill="#FFFFFF"
            >
              <path
                d="M112.5,122 C112.776142,122 113,122.223858 113,122.5 C113,122.776142 112.776142,123 112.5,123 L99.5,123 C99.2238576,123 99,122.776142 99,122.5 C99,122.223858 99.2238576,122 99.5,122 L112.5,122 Z M112.5,118 C112.776142,118 113,118.223858 113,118.5 C113,118.776142 112.776142,119 112.5,119 L99.5,119 C99.2238576,119 99,118.776142 99,118.5 C99,118.223858 99.2238576,118 99.5,118 L112.5,118 Z M112.5,114 C112.776142,114 113,114.223858 113,114.5 C113,114.776142 112.776142,115 112.5,115 L99.5,115 C99.2238576,115 99,114.776142 99,114.5 C99,114.223858 99.2238576,114 99.5,114 L112.5,114 Z"
                id="Combined-Shape"
              ></path>
            </g>
          </g>
        </svg>